<svg xmlns="http://www.w3.org/2000/svg" viewBox="0 0 131.43 106.11"><defs><style>.cls-1{font-size:29.23px;font-family:Raleway-ExtraBold, Raleway;font-weight:700;}.cls-1,.cls-4{fill:#fff;}.cls-2{letter-spacing:-0.06em;}.cls-3{letter-spacing:-0.06em;}</style></defs><title>logo_shiwa__white_text_1</title><g id="Calque_2" data-name="Calque 2"><g id="Calque_1-2" data-name="Calque 1"><text class="cls-1" transform="translate(0 99.36) scale(1.14 1)">SHI<tspan class="cls-2" x="48.57" y="0">A</tspan><tspan class="cls-3" x="66.37" y="0">W</tspan><tspan x="95.45" y="0">A</tspan></text><path class="cls-4" d="M80.48,58.34c-.92.1-2.45-1.5-3.14-2-.14.77.79,2.09,1.37,2.57a2.55,2.55,0,0,0,2.15.43,15.94,15.94,0,0,0,3.9-1.86,31.1,31.1,0,0,1,3.62-1.28c1.38-.46,1.12-.26,1.61-1.16a13.1,13.1,0,0,0-5.65,1.16c-1,.43-2.75,2-3.86,2.14"/><path class="cls-4" d="M87.4,50.28c-.91-.3-1.22-.26-2.1-.54-.07-.22-.7-.77-.77-1L80.15,51.5c3.92,2.84,6.71,2.11,7.25-1.22"/><path class="cls-4" d="M80.83,39.83c.82-8-8.46-11.52-12.49-8.88a21.09,21.09,0,0,0-9.71,15.27c-1.06,6.65,1.57,9.57,7.85,10.2C73.37,57.11,81.66,46.53,80.83,39.83Zm-5.51,5.84a4.25,4.25,0,0,0-4.08-2.35c-2.15,0-3.9,1.21-4.21,2.78a2.5,2.5,0,0,1-.19-.9c0-1.79,1.91-3.25,4.27-3.25s4.27,1.46,4.27,3.25A2.55,2.55,0,0,1,75.32,45.67Z"/><path class="cls-4" d="M105.72,13.19A24.46,24.46,0,0,0,91,1C85.91-.64,81-.8,77.35,4.54c-.28.41-.71.94-1.1,1-3.37.25-6.75.4-10.19.59l.55-4.16a14.92,14.92,0,0,0-9.16,3.15A2.89,2.89,0,0,1,53.35,5C47.09-.15,40.55-.37,33.63,3.62c-6.56,3.78-11.41,16.79-8,24A29.45,29.45,0,0,0,33.55,37a9.46,9.46,0,0,1,4,7.4c0,.17,0,.34.05.52.72,7.77,3.82,14.91,10.2,19.1,7.86,5.17,18.6,3.12,27.3,2.54,5-.33,10-1.17,14.36-3.73a17.59,17.59,0,0,0,7.48-8.5c1.81-4.59.55-9.24-.17-13.93a34.79,34.79,0,0,0-1.47-4.89c4.91-1.62,7.91-5.08,9.88-9.54C107,21.91,107.74,17.15,105.72,13.19ZM29.23,28.46c-2.45-5.11,1.26-11.77,6.54-12,5-.19,9.46,1.52,14,4.54L45.9,24.66l3.22.34-3.44,6,3.09-1C50,34.64,47.7,38,43.31,38,36.71,38,32.14,34.52,29.23,28.46ZM96,49.53c-.24,4.36-2.65,7.19-5.72,9.42-5,3.59-10.7,4.67-16.51,5.25-4.39.44-8.81.63-13.22.87-7.1.4-12.48-2.67-16.23-9.13-1-1.66-2.17-3.15-3.23-4.65l4.16-.36A23.21,23.21,0,0,1,43,47.42c-.22-.53-.43-1.08-.63-1.63l4.22.9c-1.51-.87-4.3-4.6-5.73-6.59,2.09,0,3.61-.05,5.13,0,1.78.08,2.75-.71,3.54-2.49,3.12-7.08,4-14.71,5.2-22.29.13-.86.29-1.72.42-2.58.79-5.29,3.41-7.78,9-8.22l-.57,4.52C64.76,8.82,71,7.19,76,7.76L74.41,11a25.52,25.52,0,0,0,3.26,2.28c5.87,2.9,12.51,10.49,14.71,17.09-4.74-.12-7.69,3.55-7.69,9.25C84.69,45.61,89.34,49.8,96,49.53Zm-.77-7.25a2.45,2.45,0,0,1-.07.56,3.49,3.49,0,0,0-6.53,0,2.46,2.46,0,0,1-.07-.56,3.38,3.38,0,0,1,6.67,0ZM95,29.63l-4.81-8.25,3.94-.65c-1.21-.71-2.78-1.61-3.6-2.16-2-1.34-1.1-1.74-.61-3.72l-5.83-1.12a7.48,7.48,0,0,1,7.93-4.15c4.25.5,6.21,4.13,7.68,7.64C102,22.68,99.29,26.53,95,29.63Z"/></g></g></svg>